<svg xmlns="http://www.w3.org/2000/svg" viewBox="0 0 480 480" fill="none"><defs><linearGradient id="g" x1="20" x2="420" y1="430" y2="30"><stop stop-color="#8c6424"/><stop offset=".46" stop-color="#d9a441"/><stop offset="1" stop-color="#fff3c6"/></linearGradient><linearGradient id="r" x1="130" x2="420" y1="310" y2="60"><stop stop-color="#a76862"/><stop offset=".5" stop-color="#d9a09a"/><stop offset="1" stop-color="#ffe2dd"/></linearGradient><filter id="s" x="-30%" y="-30%" width="160%" height="160%"><feDropShadow dx="0" dy="18" stdDeviation="14" flood-color="#000" flood-opacity=".24"/><feDropShadow dx="0" dy="0" stdDeviation="8" flood-color="#d9a441" flood-opacity=".28"/></filter></defs><g filter="url(#s)"><path d="M45 435C83 284 167 164 346 54" stroke="url(#g)" stroke-width="3" stroke-linecap="round"/><path d="M88 392C126 288 205 217 326 158" stroke="url(#g)" stroke-width="2.4" stroke-linecap="round"/><path d="M35 300C108 257 169 264 228 302" stroke="url(#g)" stroke-width="2.4" stroke-linecap="round"/><path d="M180 72C213 143 204 215 152 284" stroke="url(#g)" stroke-width="2.4" stroke-linecap="round"/><path d="M260 32C292 103 281 171 230 230" stroke="url(#g)" stroke-width="2.4" stroke-linecap="round"/><path d="M350 58c36-33 96-21 116 23 17 39-9 87-53 98-42 10-86-20-91-63-2-22 9-42 28-58Z" fill="url(#r)"/><path d="M143 270c31-23 78-12 94 24 15 34-5 75-42 85-37 10-77-14-84-51-4-24 8-45 32-58Z" fill="url(#r)"/><ellipse cx="265" cy="173" rx="18" ry="48" fill="#f6e2b6" opacity=".82" transform="rotate(45 265 173)"/><ellipse cx="187" cy="217" rx="15" ry="42" fill="#f6e2b6" opacity=".78" transform="rotate(-34 187 217)"/><ellipse cx="104" cy="354" rx="13" ry="38" fill="#f6e2b6" opacity=".76" transform="rotate(50 104 354)"/><circle cx="405" cy="113" r="5" fill="#fff3c6"/><circle cx="177" cy="326" r="5" fill="#fff3c6"/></g></svg>