<svg xmlns="http://www.w3.org/2000/svg" viewBox="0 0 720 92"><defs><linearGradient id="a" x1="0" x2="1"><stop stop-color="#8c6424" stop-opacity="0"/><stop offset=".22" stop-color="#f6e2b6"/><stop offset=".5" stop-color="#d9a441"/><stop offset=".78" stop-color="#f6e2b6"/><stop offset="1" stop-color="#8c6424" stop-opacity="0"/></linearGradient></defs><path d="M28 46h232M460 46h232" stroke="url(#a)" stroke-width="2" stroke-linecap="round"/><g fill="none" stroke="#d9a441" stroke-width="2"><path d="M360 16c26 0 39 15 39 30s-13 30-39 30-39-15-39-30 13-30 39-30Z"/><path d="M360 27c13 8 20 14 20 19s-7 11-20 19c-13-8-20-14-20-19s7-11 20-19Z"/><path d="M292 46c20-27 45-27 68 0-23 27-48 27-68 0ZM428 46c-20-27-45-27-68 0 23 27 48 27 68 0Z"/></g><circle cx="360" cy="46" r="5" fill="#f6e2b6"/></svg>